<?xml version="1.0" standalone="no"?>
<!DOCTYPE svg PUBLIC "-//W3C//DTD SVG 20010904//EN"
 "http://www.w3.org/TR/2001/REC-SVG-20010904/DTD/svg10.dtd">
<svg version="1.0" xmlns="http://www.w3.org/2000/svg"
 width="198.000000pt" height="198.000000pt" viewBox="0 0 198.000000 198.000000"
 preserveAspectRatio="xMidYMid meet">
<metadata>
Created by potrace 1.14, written by Peter Selinger 2001-2017
</metadata>
<g transform="translate(0.000000,198.000000) scale(0.100000,-0.100000)"
fill="#000000" stroke="none">
<path d="M1203 1624 l0 -55 56 -29 c97 -48 96 -49 96 52 l0 88 -76 0 -75 0 -1
-56z"/>
<path d="M724 1491 c-233 -115 -262 -132 -269 -157 -15 -53 -14 -329 2 -411
34 -183 95 -311 202 -424 l51 -54 18 23 c10 13 27 40 38 60 10 20 56 101 102
180 88 152 92 168 46 198 -46 31 -63 14 -148 -136 -44 -77 -84 -139 -89 -137
-27 9 -106 191 -123 280 -19 106 -24 243 -12 355 1 8 102 64 225 125 l223 112
218 -109 c119 -60 220 -114 224 -120 4 -6 5 -30 3 -53 -3 -24 -7 -64 -10 -89
-30 -264 -143 -502 -341 -714 -23 -25 -55 -60 -70 -79 l-28 -34 25 8 c13 4 58
25 100 46 128 64 244 208 338 421 12 26 21 51 21 57 0 5 5 22 12 38 14 36 15
39 34 143 8 43 14 294 7 318 -5 19 -56 49 -268 153 -144 71 -263 129 -266 129
-2 -1 -122 -59 -265 -129z"/>
<path d="M817 1252 c-40 -42 -91 -132 -101 -179 -6 -27 -3 -33 27 -52 19 -11
37 -21 40 -21 3 0 24 33 47 73 22 39 52 90 65 112 32 53 31 59 -9 83 l-34 20
-35 -36z"/>
<path d="M915 1156 c-73 -125 -85 -147 -85 -155 0 -4 21 -15 48 -24 26 -10 71
-35 100 -58 51 -38 55 -39 68 -22 7 10 14 21 14 25 0 3 21 41 46 84 32 54 42
80 35 87 -6 6 -11 8 -11 4 0 -10 -109 50 -150 83 l-35 28 -30 -52z"/>
<path d="M1173 1062 c-31 -44 -125 -213 -122 -216 2 -1 18 -12 36 -24 l32 -23
28 28 c31 31 97 123 88 123 -3 0 1 14 10 30 9 17 13 30 10 30 -3 0 -1 8 4 18
8 14 2 22 -29 40 l-39 22 -18 -28z"/>
</g>
</svg>
