<svg width="20" height="20" viewBox="0 0 20 20" fill="none" xmlns="http://www.w3.org/2000/svg">
<path d="M18.1588 0.806213C17.6826 0.806213 17.1112 0.868229 16.381 0.961252C15.6509 1.08528 15.1429 1.20931 14.8572 1.36435C14.5397 1.51939 14.0953 1.92249 13.4604 2.57366C12.8572 3.19381 12.0635 4.21707 11.1112 5.51939C10.1588 6.85272 9.33339 8.12404 8.63498 9.36435C8.00006 10.4496 7.36514 11.6589 6.73022 12.9302C6.28577 12.3721 5.80958 11.938 5.33339 11.5969C4.73022 11.1938 4.12704 10.9768 3.58736 10.9768C3.04768 10.9768 2.41276 11.2248 1.77784 11.6899C1.11117 12.1861 0.761963 12.7442 0.761963 13.3333C0.761963 13.7985 1.04768 14.3256 1.65085 14.9457C2.50799 15.876 3.20641 16.7442 3.71434 17.5194C4.0953 18.0775 4.34926 18.4496 4.50799 18.6357C4.69847 18.8217 4.92069 18.9768 5.17466 19.0698C5.42863 19.1628 5.87307 19.1938 6.47625 19.1938C7.33339 19.1938 7.90482 19.1008 8.25403 18.9147C8.60323 18.7287 8.8572 18.4806 9.04768 18.1395C9.20641 17.8295 9.49212 17.2403 9.87307 16.3101C10.8255 13.9845 12.127 11.5349 13.7461 9.05428C15.3651 6.57366 16.9207 4.65117 18.4128 3.28683C18.7937 2.97676 19.0159 2.72869 19.1112 2.57366C19.3016 2.44962 19.3651 2.23257 19.3651 1.98451C19.3651 1.67443 19.2382 1.39536 19.0159 1.17831C18.8255 0.930244 18.508 0.806213 18.1588 0.806213Z" fill="#2F66A0"/>
</svg>
