<?xml version="1.0" encoding="utf-8"?>
<!-- Generator: Adobe Illustrator 26.5.0, SVG Export Plug-In . SVG Version: 6.00 Build 0)  -->
<svg version="1.1" id="Layer_1" xmlns="http://www.w3.org/2000/svg" xmlns:xlink="http://www.w3.org/1999/xlink" x="0px" y="0px"
	 viewBox="0 0 20 20" style="enable-background:new 0 0 20 20;" xml:space="preserve">
<style type="text/css">
	.st0{fill:url(#SVGID_1_);}
	.st1{fill:#FFFFFF;}
</style>
<g>
	
		<linearGradient id="SVGID_1_" gradientUnits="userSpaceOnUse" x1="69.8994" y1="11.7682" x2="-12.743" y2="12.433" gradientTransform="matrix(1 0 0 -1 0 22)">
		<stop  offset="0.64" style="stop-color:#4CF4CD"/>
		<stop  offset="1" style="stop-color:#44A08A"/>
	</linearGradient>
	<path class="st0" d="M10,19.5c-5.5,0-10-4.4-10-9.8S4.5,0,10,0c5.5,0,10,4.4,10,9.8S15.5,19.5,10,19.5z M10,1.2
		C5.1,1.2,1.2,5,1.2,9.8c0,4.7,3.9,8.6,8.8,8.6c4.9,0,8.8-3.8,8.8-8.6C18.8,5,14.9,1.2,10,1.2z"/>
</g>
<g>
	<path class="st1" d="M10,12.9c-0.6,0-2.6,0-2.6-1.3c0-1.3,1.9-1.3,2.6-1.3s2.6,0,2.6,1.3C12.6,12.9,10.7,12.9,10,12.9z M10,11.2
		c-1.3,0-1.6,0.2-1.6,0.3c0,0.1,0.3,0.3,1.6,0.3c1.3,0,1.6-0.2,1.6-0.3C11.6,11.5,11.3,11.2,10,11.2z"/>
</g>
<g>
	<path class="st1" d="M10,10.3L10,10.3c-0.5,0-0.9-0.2-1.3-0.5C8.4,9.4,8.2,9,8.2,8.5c0-1,0.8-1.8,1.8-1.8s1.8,0.8,1.8,1.8
		C11.8,9.5,11,10.3,10,10.3z M10,7.7c-0.5,0-0.8,0.4-0.8,0.8c0,0.2,0.1,0.4,0.2,0.6C9.6,9.2,9.8,9.3,10,9.3l0,0.5V9.3
		c0.5,0,0.8-0.4,0.8-0.8S10.5,7.7,10,7.7z"/>
</g>
</svg>
