<svg width="22" height="22" viewBox="0 0 22 22" fill="none" xmlns="http://www.w3.org/2000/svg">
<path d="M17.4016 1.0437L20.9562 4.59786C20.9562 4.59787 20.9562 4.59787 20.9563 4.59788C21.0483 4.68988 21.1 4.81469 21.1 4.9448V19.8281C21.1 20.5295 20.5295 21.1 19.8281 21.1H5.45312C4.75172 21.1 4.18125 20.5295 4.18125 19.8281V16.4818C4.18125 16.2108 4.40094 15.9911 4.67188 15.9911C4.94281 15.9911 5.1625 16.2108 5.1625 16.4818V19.8281C5.1625 19.9883 5.29296 20.1187 5.45312 20.1187H19.8281C19.9883 20.1187 20.1187 19.9883 20.1187 19.8281V5.43594H17.8359C17.1345 5.43594 16.5641 4.86546 16.5641 4.16406V1.88125H5.45312C5.29296 1.88125 5.1625 2.01171 5.1625 2.17188V2.55775C5.48554 2.4954 5.81888 2.4625 6.1598 2.4625C6.43074 2.4625 6.65043 2.68219 6.65043 2.95312V7.7223C6.65043 7.99324 6.43074 8.21293 6.1598 8.21293H1.39062C1.11969 8.21293 0.9 7.99324 0.9 7.7223C0.9 5.52118 2.25891 3.6321 4.18125 2.84885V2.17188C4.18125 1.47047 4.75172 0.9 5.45312 0.9H17.0547C17.1848 0.9 17.3096 0.951718 17.4016 1.0437ZM17.4016 1.0437L17.3309 1.11441M17.4016 1.0437L17.3309 1.11441M17.4016 1.0437L17.4016 1.0437L17.3309 1.11441M17.4016 1.0437L17.3309 1.11441M1.90919 7.23168C2.13478 5.26374 3.70124 3.69732 5.66914 3.47173V7.23168H1.90919ZM17.8359 4.45469C17.6758 4.45469 17.5453 4.32422 17.5453 4.16406V2.57499L19.4253 4.45469H17.8359Z" fill="white" stroke="white" stroke-width="0.2"/>
<path d="M4.67188 14.5719C4.80113 14.5719 4.92735 14.6242 5.01873 14.7156C5.01874 14.7156 5.01875 14.7156 5.01876 14.7157C5.11016 14.807 5.1625 14.9332 5.1625 15.0625C5.1625 15.1918 5.11014 15.318 5.01868 15.4094L4.94801 15.3386L5.01876 15.4093C4.92739 15.5008 4.80117 15.5531 4.67188 15.5531C4.54261 15.5531 4.41642 15.5008 4.32503 15.4094L4.67188 14.5719ZM4.67188 14.5719C4.54261 14.5719 4.4164 14.6242 4.32499 14.7156L4.67188 14.5719Z" fill="white" stroke="white" stroke-width="0.2"/>
<path d="M7.9059 9.46836L10.91 6.46427C11.4905 7.19474 11.8375 8.11826 11.8375 9.12144C11.8375 11.4805 9.91804 13.4 7.55894 13.4C5.36578 13.4 3.55243 11.741 3.3084 9.61206H7.55894C7.69347 9.61206 7.81547 9.55779 7.90401 9.47019C7.90466 9.46958 7.90528 9.46897 7.9059 9.46836ZM7.88602 9.48378C7.88551 9.48408 7.8857 9.48397 7.88603 9.48377L7.88602 9.48378ZM7.55894 3.86167C7.288 3.86167 7.06831 4.08136 7.06831 4.35229V8.63081H2.78979C2.51886 8.63081 2.29917 8.8505 2.29917 9.12144C2.29917 12.0218 4.65859 14.3812 7.55894 14.3812C10.4593 14.3812 12.8187 12.0218 12.8187 9.12144C12.8187 6.22109 10.4593 3.86167 7.55894 3.86167ZM8.04956 7.93697V4.8709C8.86221 4.96405 9.60634 5.28596 10.2161 5.7705L8.04956 7.93697Z" fill="white" stroke="white" stroke-width="0.2"/>
<path d="M8.38781 18.0575L8.38781 18.0575C8.39072 18.0605 8.39342 18.0629 8.39499 18.0642C8.44433 18.1166 8.47438 18.1864 8.47438 18.2632C8.47438 18.4233 8.34391 18.5538 8.18375 18.5538C8.02359 18.5538 7.89313 18.4234 7.89313 18.2632C7.89313 18.103 8.02359 17.9726 8.18375 17.9726C8.26022 17.9726 8.3298 18.0024 8.38209 18.0514C8.38336 18.0529 8.38541 18.0551 8.38781 18.0575ZM18.1122 13.2283C17.4108 13.2283 16.8404 13.7988 16.8404 14.5002C16.8404 14.6518 16.8671 14.7974 16.916 14.9325L14.7607 17.0878C14.6099 17.0246 14.4444 16.9897 14.271 16.9897C14.1021 16.9897 13.9407 17.0229 13.793 17.0831L12.3918 15.6819C12.4338 15.556 12.4567 15.4213 12.4567 15.2814C12.4567 14.58 11.8862 14.0095 11.1848 14.0095C10.4834 14.0095 9.91297 14.58 9.91297 15.2814C9.91297 15.4465 9.94482 15.6042 10.0024 15.7491L8.66539 17.0861C8.51671 17.025 8.35403 16.9913 8.18379 16.9913C7.48239 16.9913 6.91192 17.5618 6.91192 18.2632C6.91192 18.9646 7.48239 19.535 8.18379 19.535C8.88519 19.535 9.45567 18.9646 9.45567 18.2632C9.45567 18.092 9.42164 17.9285 9.36 17.7792L10.6875 16.4517C10.8404 16.517 11.0085 16.5533 11.1849 16.5533C11.3858 16.5533 11.576 16.5062 11.745 16.4228L13.0963 17.7741C13.0337 17.9244 12.9991 18.0891 12.9991 18.2615C12.9991 18.9629 13.5696 19.5334 14.271 19.5334C14.9724 19.5334 15.5429 18.9629 15.5429 18.2615C15.5429 18.0935 15.51 17.9329 15.4504 17.7859L17.5808 15.6555C17.7426 15.7302 17.9227 15.7721 18.1122 15.7721C18.8136 15.7721 19.3841 15.2016 19.3841 14.5002C19.3841 13.7988 18.8136 13.2283 18.1122 13.2283ZM11.1848 15.572C11.0247 15.572 10.8942 15.4416 10.8942 15.2814C10.8942 15.1212 11.0247 14.9908 11.1848 14.9908C11.345 14.9908 11.4755 15.1212 11.4755 15.2814C11.4755 15.4416 11.345 15.572 11.1848 15.572ZM14.2709 18.5522C14.1108 18.5522 13.9803 18.4217 13.9803 18.2615C13.9803 18.1014 14.1108 17.9709 14.2709 17.9709C14.4311 17.9709 14.5616 18.1014 14.5616 18.2615C14.5616 18.4217 14.4311 18.5522 14.2709 18.5522ZM18.1122 14.7908C17.952 14.7908 17.8215 14.6603 17.8215 14.5001C17.8215 14.34 17.952 14.2095 18.1122 14.2095C18.2723 14.2095 18.4028 14.34 18.4028 14.5001C18.4028 14.6603 18.2723 14.7908 18.1122 14.7908Z" fill="white" stroke="white" stroke-width="0.2"/>
<path d="M16.1598 10.0797H14.0981C13.8272 10.0797 13.6075 10.2994 13.6075 10.5703C13.6075 10.8412 13.8271 11.0609 14.0981 11.0609H16.1598C16.4307 11.0609 16.6504 10.8412 16.6504 10.5703C16.6504 10.2994 16.4307 10.0797 16.1598 10.0797Z" fill="white" stroke="white" stroke-width="0.2"/>
<path d="M17.9383 10.0797C18.0675 10.0797 18.1937 10.132 18.2851 10.2234C18.2851 10.2234 18.2851 10.2234 18.2851 10.2234C18.2851 10.2234 18.2851 10.2234 18.2851 10.2234C18.3766 10.3148 18.4289 10.441 18.4289 10.5703C18.4289 10.6996 18.3765 10.8258 18.2851 10.9172L17.9383 10.0797ZM17.9383 10.0797C17.809 10.0797 17.6828 10.132 17.5914 10.2234L17.9383 10.0797ZM17.4477 10.5703C17.4477 10.6996 17.4999 10.8258 17.5914 10.9172L17.5914 10.2234C17.5 10.3148 17.4477 10.441 17.4477 10.5703Z" fill="white" stroke="white" stroke-width="0.2"/>
<path d="M18.8697 6.32969H14.0981C13.8272 6.32969 13.6075 6.54938 13.6075 6.82031C13.6075 7.09124 13.8271 7.31094 14.0981 7.31094H18.8697C19.1407 7.31094 19.3603 7.09124 19.3603 6.82031C19.3603 6.54938 19.1407 6.32969 18.8697 6.32969Z" fill="white" stroke="white" stroke-width="0.2"/>
<path d="M18.8697 8.20469H14.0981C13.8272 8.20469 13.6075 8.42438 13.6075 8.69531C13.6075 8.96624 13.8271 9.18594 14.0981 9.18594H18.8697C19.1407 9.18594 19.3603 8.96624 19.3603 8.69531C19.3603 8.42438 19.1407 8.20469 18.8697 8.20469Z" fill="white" stroke="white" stroke-width="0.2"/>
</svg>
