<svg width="15" height="15" viewBox="0 0 15 15" fill="none" xmlns="http://www.w3.org/2000/svg">
<path d="M4.6875 4.21875C4.56318 4.21875 4.44395 4.16936 4.35604 4.08146C4.26814 3.99355 4.21875 3.87432 4.21875 3.75V1.875C4.21875 1.75068 4.26814 1.63145 4.35604 1.54354C4.44395 1.45564 4.56318 1.40625 4.6875 1.40625C4.81182 1.40625 4.93105 1.45564 5.01896 1.54354C5.10686 1.63145 5.15625 1.75068 5.15625 1.875V3.75C5.15625 3.87432 5.10686 3.99355 5.01896 4.08146C4.93105 4.16936 4.81182 4.21875 4.6875 4.21875ZM10.3125 4.21875C10.1882 4.21875 10.069 4.16936 9.98104 4.08146C9.89314 3.99355 9.84375 3.87432 9.84375 3.75V1.875C9.84375 1.75068 9.89314 1.63145 9.98104 1.54354C10.069 1.45564 10.1882 1.40625 10.3125 1.40625C10.4368 1.40625 10.556 1.45564 10.644 1.54354C10.7319 1.63145 10.7812 1.75068 10.7812 1.875V3.75C10.7812 3.87432 10.7319 3.99355 10.644 4.08146C10.556 4.16936 10.4368 4.21875 10.3125 4.21875Z" fill="#326AA3"/>
<path d="M12.1875 13.5938H2.8125C2.03719 13.5938 1.40625 12.9628 1.40625 12.1875V3.75C1.40625 2.97469 2.03719 2.34375 2.8125 2.34375H12.1875C12.9628 2.34375 13.5938 2.97469 13.5938 3.75V12.1875C13.5938 12.9628 12.9628 13.5938 12.1875 13.5938ZM2.8125 3.28125C2.68818 3.28125 2.56895 3.33064 2.48104 3.41854C2.39314 3.50645 2.34375 3.62568 2.34375 3.75V12.1875C2.34375 12.3118 2.39314 12.431 2.48104 12.519C2.56895 12.6069 2.68818 12.6562 2.8125 12.6562H12.1875C12.3118 12.6562 12.431 12.6069 12.519 12.519C12.6069 12.431 12.6562 12.3118 12.6562 12.1875V3.75C12.6562 3.62568 12.6069 3.50645 12.519 3.41854C12.431 3.33064 12.3118 3.28125 12.1875 3.28125H2.8125Z" fill="#326AA3"/>
<path d="M13.125 6.09375H1.875C1.75068 6.09375 1.63145 6.04436 1.54354 5.95646C1.45564 5.86855 1.40625 5.74932 1.40625 5.625C1.40625 5.50068 1.45564 5.38145 1.54354 5.29354C1.63145 5.20564 1.75068 5.15625 1.875 5.15625H13.125C13.2493 5.15625 13.3685 5.20564 13.4565 5.29354C13.5444 5.38145 13.5938 5.50068 13.5938 5.625C13.5938 5.74932 13.5444 5.86855 13.4565 5.95646C13.3685 6.04436 13.2493 6.09375 13.125 6.09375ZM5.15625 7.03125H6.09375V7.96875H5.15625V7.03125ZM7.03125 7.03125H7.96875V7.96875H7.03125V7.03125ZM8.90625 7.03125H9.84375V7.96875H8.90625V7.03125ZM10.7812 7.03125H11.7188V7.96875H10.7812V7.03125ZM3.28125 8.90625H4.21875V9.84375H3.28125V8.90625ZM5.15625 8.90625H6.09375V9.84375H5.15625V8.90625ZM7.03125 8.90625H7.96875V9.84375H7.03125V8.90625ZM8.90625 8.90625H9.84375V9.84375H8.90625V8.90625ZM10.7812 8.90625H11.7188V9.84375H10.7812V8.90625ZM3.28125 10.7812H4.21875V11.7188H3.28125V10.7812ZM5.15625 10.7812H6.09375V11.7188H5.15625V10.7812ZM7.03125 10.7812H7.96875V11.7188H7.03125V10.7812Z" fill="#326AA3"/>
</svg>
