<svg width="74" height="94" viewBox="0 0 74 94" fill="none" xmlns="http://www.w3.org/2000/svg">
<path d="M36.177 93.5827C36.4302 93.7173 36.7127 93.7877 36.9995 93.7877C37.2863 93.7877 37.5687 93.7173 37.822 93.5827L49.473 87.3827C56.7186 83.537 62.7789 77.7891 67.0025 70.757C71.226 63.725 73.453 55.6747 73.444 47.4717V12.9997C73.4438 12.6281 73.3254 12.2662 73.1059 11.9663C72.8864 11.6665 72.5771 11.4442 72.223 11.3317L37.529 0.331734C37.1844 0.222755 36.8146 0.222755 36.47 0.331734L1.77596 11.3317C1.42178 11.4442 1.11256 11.6665 0.893059 11.9663C0.673555 12.2662 0.555145 12.6281 0.554962 12.9997V47.4707C0.545371 55.6738 2.77211 63.7243 6.99572 70.7565C11.2193 77.7886 17.28 83.5364 24.526 87.3817L36.177 93.5827ZM4.05496 47.4707V14.2817L37 3.83573L69.944 14.2817V47.4707C69.9529 55.0387 67.8986 62.4659 64.002 68.9537C60.1054 75.4414 54.5139 80.7442 47.829 84.2917L37 90.0557L26.171 84.2917C19.4857 80.7444 13.894 75.4417 9.99723 68.9539C6.10044 62.4662 4.04604 55.0388 4.05496 47.4707Z" fill="#2F66A0"/>
<path d="M36.177 85.6523C36.4302 85.7869 36.7127 85.8572 36.9995 85.8572C37.2863 85.8572 37.5687 85.7869 37.822 85.6523L46.185 81.1993C52.3086 77.9493 57.4305 73.0916 61.0001 67.1486C64.5696 61.2055 66.4517 54.4019 66.444 47.4693V18.1233C66.4441 17.7516 66.3258 17.3895 66.1062 17.0896C65.8867 16.7897 65.5773 16.5675 65.223 16.4553L37.529 7.6753C37.1845 7.56527 36.8144 7.56527 36.47 7.6753L8.77596 16.4553C8.4216 16.5675 8.11222 16.7897 7.89267 17.0896C7.67312 17.3895 7.55483 17.7516 7.55496 18.1233V47.4693C7.54722 54.402 9.42941 61.2058 12.9991 67.1488C16.5689 73.0919 21.6911 77.9495 27.815 81.1993L36.177 85.6523ZM11.055 47.4693V19.4043L37 11.1783L62.944 19.4043V47.4693C62.9516 53.7669 61.2426 59.9474 58.0006 65.3464C54.7586 70.7453 50.1063 75.1585 44.544 78.1113L37 82.1253L29.46 78.1113C23.8965 75.1593 19.243 70.7465 16.0001 65.3474C12.7572 59.9484 11.0475 53.7674 11.055 47.4693Z" fill="#2F66A0"/>
<path d="M34.1568 59.5203C34.8736 59.5221 35.5836 59.3816 36.2457 59.1069C36.9078 58.8323 37.5088 58.429 38.0138 57.9203L52.1438 43.7913C53.1669 42.7683 53.7417 41.3807 53.7417 39.9338C53.7417 38.487 53.1669 37.0994 52.1438 36.0763C51.1208 35.0533 49.7332 34.4785 48.2863 34.4785C46.8395 34.4785 45.4519 35.0533 44.4288 36.0763L34.1568 46.3493L29.7568 41.9493C29.2526 41.4329 28.6509 41.0217 27.9865 40.7396C27.3222 40.4574 26.6085 40.3099 25.8868 40.3055C25.165 40.3012 24.4496 40.4401 23.7819 40.7143C23.1142 40.9884 22.5076 41.3923 21.9972 41.9026C21.4867 42.4129 21.0826 43.0195 20.8083 43.6871C20.534 44.3547 20.3949 45.0701 20.399 45.7918C20.4032 46.5136 20.5505 47.2273 20.8325 47.8917C21.1145 48.5561 21.5256 49.158 22.0418 49.6623L30.2998 57.9213C30.805 58.4298 31.406 58.8329 32.0681 59.1074C32.7302 59.3819 33.4401 59.5222 34.1568 59.5203ZM23.9398 45.7993C23.9403 45.4128 24.0552 45.0351 24.2702 44.7138C24.4851 44.3925 24.7905 44.1422 25.1476 43.9943C25.5048 43.8464 25.8977 43.8077 26.2768 43.883C26.656 43.9583 27.0043 44.1442 27.2778 44.4173L32.9198 50.0573C33.248 50.3853 33.6929 50.5695 34.1568 50.5695C34.6208 50.5695 35.0657 50.3853 35.3938 50.0573L46.8998 38.5523C47.0799 38.364 47.2957 38.2134 47.5347 38.1096C47.7737 38.0058 48.031 37.9508 48.2916 37.9478C48.5522 37.9448 48.8107 37.9939 49.052 38.0923C49.2933 38.1906 49.5126 38.3361 49.6968 38.5203C49.8811 38.7046 50.0267 38.9237 50.1251 39.165C50.2236 39.4063 50.2728 39.6648 50.2699 39.9254C50.267 40.1859 50.2121 40.4433 50.1083 40.6823C50.0046 40.9214 49.8542 41.1373 49.6658 41.3173L35.5398 55.4473C35.1676 55.8037 34.6722 56.0026 34.1568 56.0026C33.6415 56.0026 33.1461 55.8037 32.7738 55.4473L24.5128 47.1853C24.3302 47.0039 24.1854 46.7879 24.0871 46.5499C23.9887 46.312 23.9386 46.0568 23.9398 45.7993Z" fill="#2F66A0"/>
</svg>
