<svg width="20" height="20" viewBox="0 0 20 20" fill="none" xmlns="http://www.w3.org/2000/svg">
<path d="M5.09355 14.8571C7.95069 17.7142 11.7364 19.9999 15.0221 19.9999C16.5221 19.9999 17.8793 19.4999 19.0221 18.3571L19.2364 18.1428C20.0221 17.3571 20.0221 15.9999 19.2364 15.2142L17.2364 13.2142C16.4507 12.4285 15.0935 12.4285 14.3078 13.2142L13.5935 13.9285C13.3078 14.2142 12.9507 14.3571 12.5935 14.3571C12.165 14.3571 11.8793 14.2142 11.5935 13.9285L6.02212 8.35707C5.45069 7.78564 5.45069 6.92849 6.02212 6.35706L6.7364 5.64278C7.09355 5.28564 7.37926 4.71421 7.37926 4.21421C7.37926 3.64278 7.16498 3.14278 6.80783 2.78564L4.80783 0.642779C4.45069 0.285636 3.87926 0.0713501 3.37926 0.0713501C2.80783 0.0713501 2.30783 0.285636 1.95069 0.714207L1.59355 0.928493C-0.0493108 2.57135 -0.406454 4.92849 0.450689 7.71421C1.2364 10.0714 2.87926 12.5713 5.09355 14.8571ZM2.59355 1.92849L2.80783 1.71421C2.95069 1.57135 3.09355 1.49992 3.2364 1.49992C3.37926 1.49992 3.59355 1.57135 3.66497 1.71421L5.66497 3.71421C5.80783 3.85706 5.87926 3.99992 5.87926 4.14278C5.87926 4.28564 5.80783 4.49992 5.66497 4.57135L4.95069 5.28564C3.80783 6.42849 3.80783 8.21421 4.95069 9.28564L10.5221 14.8571C11.0221 15.3571 11.7364 15.7142 12.5221 15.7142C13.3078 15.7142 14.0221 15.4285 14.5221 14.8571L15.2364 14.1428C15.5221 13.8571 15.8793 13.8571 16.165 14.1428L18.165 16.1428C18.3793 16.3571 18.3793 16.7856 18.165 17.0714L17.9507 17.2856C15.2364 20.0714 9.87926 17.5714 6.02212 13.7856C3.95069 11.7142 2.37926 9.35706 1.7364 7.21421C1.30783 5.71421 1.02212 3.49992 2.59355 1.92849Z" fill="white"/>
<path d="M11.3793 5.00004C13.3793 5.00004 14.9508 6.57147 14.9508 8.57147C14.9508 9.00004 15.2365 9.28576 15.665 9.28576C16.0936 9.28576 16.3793 9.00004 16.3793 8.57147C16.3793 5.78576 14.165 3.57147 11.3793 3.57147C10.9508 3.57147 10.665 3.85719 10.665 4.28576C10.665 4.71433 10.9508 5.00004 11.3793 5.00004Z" fill="white"/>
<path d="M11.522 1.42857C15.3792 1.42857 18.522 4.57143 18.522 8.42857C18.522 8.85714 18.8078 9.14286 19.2363 9.14286C19.6649 9.14286 19.9506 8.85714 19.9506 8.42857C19.9506 3.78571 16.1649 0 11.522 0C11.0935 0 10.8078 0.285714 10.8078 0.714286C10.8078 1.14286 11.0935 1.42857 11.522 1.42857Z" fill="white"/>
</svg>
