<svg width="18" height="18" viewBox="0 0 18 18" fill="none" xmlns="http://www.w3.org/2000/svg">
<path d="M13.125 18C10.437 18 8.24997 15.813 8.24997 13.125C8.24997 10.437 10.437 8.24997 13.125 8.24997C15.813 8.24997 18 10.437 18 13.125C18 15.813 15.813 18 13.125 18ZM13.125 9.37497C11.0572 9.37497 9.37497 11.0572 9.37497 13.125C9.37497 15.1927 11.0572 16.875 13.125 16.875C15.1927 16.875 16.875 15.1927 16.875 13.125C16.875 11.0572 15.1927 9.37497 13.125 9.37497Z" fill="white"/>
<path d="M14.922 15.4845C14.7982 15.4845 14.6745 15.444 14.571 15.3608L12.774 13.923C12.6405 13.8165 12.5632 13.6552 12.5632 13.4842V10.9687C12.5632 10.6582 12.8152 10.4062 13.1257 10.4062C13.4362 10.4062 13.6882 10.6582 13.6882 10.9687V13.2142L15.2745 14.4833C15.5167 14.6775 15.5557 15.0307 15.3622 15.2737C15.2497 15.4125 15.087 15.4845 14.922 15.4845Z" fill="white"/>
<path d="M7.39504 10.5H4.35004C4.03954 10.5 3.78754 10.248 3.78754 9.93747C3.78754 9.62697 4.03954 9.37497 4.35004 9.37497H7.39504C7.70554 9.37497 7.95754 9.62697 7.95754 9.93747C7.95754 10.248 7.70554 10.5 7.39504 10.5Z" fill="white"/>
<path d="M10.7325 7.50003H4.35004C4.03954 7.50003 3.78754 7.24803 3.78754 6.93753C3.78754 6.62703 4.03954 6.37503 4.35004 6.37503H10.7325C11.043 6.37503 11.295 6.62703 11.295 6.93753C11.295 7.24803 11.043 7.50003 10.7325 7.50003Z" fill="white"/>
<path d="M11.4375 4.5H4.35223C4.04173 4.5 3.78973 4.248 3.78973 3.9375C3.78973 3.627 4.04173 3.375 4.35223 3.375H11.4375C11.748 3.375 12 3.627 12 3.9375C12 4.248 11.748 4.5 11.4375 4.5Z" fill="white"/>
<path d="M2.06247 14.2815C1.75197 14.2815 1.49997 14.0295 1.49997 13.719V2.8125C1.49997 1.2615 2.76147 0 4.31247 0H15.5625C15.873 0 16.125 0.252 16.125 0.5625C16.125 0.873 15.873 1.125 15.5625 1.125H4.31247C3.38172 1.125 2.62497 1.88175 2.62497 2.8125V13.719C2.62497 14.0295 2.37297 14.2815 2.06247 14.2815Z" fill="white"/>
<path d="M17.4375 4.125H13.6875C13.377 4.125 13.125 3.873 13.125 3.5625V2.4375C13.125 1.0935 14.2185 0 15.5625 0C16.9065 0 18 1.0935 18 2.4375V3.5625C18 3.873 17.748 4.125 17.4375 4.125ZM14.25 3H16.875V2.4375C16.875 1.71375 16.2863 1.125 15.5625 1.125C14.8388 1.125 14.25 1.71375 14.25 2.4375V3Z" fill="white"/>
<path d="M8.19 18H2.0625C0.92475 18 0 17.0753 0 15.9375V13.7175C0 13.407 0.252 13.155 0.5625 13.155H6.5925C6.903 13.155 7.155 13.407 7.155 13.7175C7.155 14.028 6.903 14.28 6.5925 14.28H1.125V15.9375C1.125 16.4543 1.54575 16.875 2.0625 16.875H8.19C8.5005 16.875 8.7525 17.127 8.7525 17.4375C8.7525 17.748 8.5005 18 8.19 18Z" fill="white"/>
<path d="M13.6875 7.15503C13.377 7.15503 13.125 6.90303 13.125 6.59253V3.56253C13.125 3.25203 13.377 3.00003 13.6875 3.00003C13.998 3.00003 14.25 3.25203 14.25 3.56253V6.59253C14.25 6.90303 13.998 7.15503 13.6875 7.15503Z" fill="white"/>
</svg>
