<svg width="19" height="13" viewBox="0 0 19 13" fill="none" xmlns="http://www.w3.org/2000/svg">
<path d="M1.21928 6.75174L1.34013 6.62501V9.25048C1.34013 9.66473 1.66226 10.0006 2.05958 10.0006H7.93972C8.33703 10.0006 8.65917 9.66473 8.65917 9.25048V6.62501L8.78072 6.75174C9.06298 7.03597 9.51176 7.03194 9.78928 6.74258C10.0668 6.45323 10.0707 5.98549 9.79807 5.69101L8.4491 4.28542L5.50859 1.22024C5.22773 0.927401 4.77227 0.927401 4.49124 1.22024L1.5509 4.28377L0.201934 5.69101C-0.0706708 5.98549 -0.0668065 6.45323 0.210716 6.74258C0.488239 7.03194 0.937017 7.03597 1.21928 6.75174ZM7.22027 5.12474V8.50034H5.71936V7.70369C5.71936 7.28943 5.3974 6.95356 4.99991 6.95356C4.6026 6.95356 4.28046 7.28943 4.28046 7.70369V8.50034H2.77903V5.12474L4.99991 2.80988L7.22027 5.12474Z" fill="white"/>
<path d="M11.875 2.50061H12.3032C12.5642 3.24905 13.2703 3.75031 14.0628 3.75031C14.8555 3.75031 15.5614 3.24905 15.8224 2.50061H17.5C17.8452 2.50061 18.125 2.22076 18.125 1.87561C18.125 1.53046 17.8452 1.25061 17.5 1.25061H15.8224C15.5617 0.501709 14.8555 0 14.0625 0C13.2695 0 12.5633 0.501709 12.3026 1.25061H11.875C11.5298 1.25061 11.25 1.53046 11.25 1.87561C11.25 2.22076 11.5298 2.50061 11.875 2.50061ZM14.0625 1.25061C14.4077 1.25061 14.6875 1.53046 14.6875 1.87561C14.6875 2.22076 14.4077 2.50061 14.0625 2.50061C13.7173 2.50061 13.4375 2.22076 13.4375 1.87561C13.4375 1.53046 13.7173 1.25061 14.0625 1.25061Z" fill="white"/>
<path d="M11.875 6.87561H13.5532C13.8142 7.62405 14.5203 8.12531 15.3128 8.12531C16.1055 8.12531 16.8114 7.62405 17.0724 6.87561H17.5C17.8452 6.87561 18.125 6.59576 18.125 6.25061C18.125 5.90546 17.8452 5.62561 17.5 5.62561H17.0724C16.8117 4.87671 16.1055 4.375 15.3125 4.375C14.5195 4.375 13.8133 4.87671 13.5526 5.62561H11.875C11.5298 5.62561 11.25 5.90546 11.25 6.25061C11.25 6.59576 11.5298 6.87561 11.875 6.87561ZM15.3125 5.62561C15.6577 5.62561 15.9375 5.90546 15.9375 6.25061C15.9375 6.59576 15.6577 6.87561 15.3125 6.87561C14.9673 6.87561 14.6875 6.59576 14.6875 6.25061C14.6875 5.90546 14.9673 5.62561 15.3125 5.62561Z" fill="white"/>
<path d="M11.875 11.2506H12.3032C12.5642 11.9991 13.2703 12.5003 14.0628 12.5003C14.8555 12.5003 15.5614 11.9991 15.8224 11.2506H17.5C17.8452 11.2506 18.125 10.9708 18.125 10.6256C18.125 10.2805 17.8452 10.0006 17.5 10.0006H15.8224C15.5617 9.25171 14.8555 8.75 14.0625 8.75C13.2695 8.75 12.5633 9.25171 12.3026 10.0006H11.875C11.5298 10.0006 11.25 10.2805 11.25 10.6256C11.25 10.9708 11.5298 11.2506 11.875 11.2506ZM14.0625 10.0006C14.4077 10.0006 14.6875 10.2805 14.6875 10.6256C14.6875 10.9708 14.4077 11.2506 14.0625 11.2506C13.7173 11.2506 13.4375 10.9708 13.4375 10.6256C13.4375 10.2805 13.7173 10.0006 14.0625 10.0006Z" fill="white"/>
</svg>
