<svg width="18" height="20" viewBox="0 0 18 20" fill="none" xmlns="http://www.w3.org/2000/svg">
<path d="M7.28125 9.6875V9.34677C7.74475 9.26866 8.16197 9.01921 8.45017 8.64789C8.73837 8.27658 8.8765 7.81051 8.83717 7.34212C8.79784 6.87373 8.58392 6.43723 8.23784 6.11917C7.89176 5.80111 7.43879 5.62473 6.96875 5.625H6.34375C6.17799 5.625 6.01902 5.55915 5.90181 5.44194C5.7846 5.32473 5.71875 5.16576 5.71875 5C5.71875 4.83424 5.7846 4.67527 5.90181 4.55806C6.01902 4.44085 6.17799 4.375 6.34375 4.375H8.21875C8.38451 4.375 8.54348 4.30915 8.66069 4.19194C8.7779 4.07473 8.84375 3.91576 8.84375 3.75C8.84375 3.58424 8.7779 3.42527 8.66069 3.30806C8.54348 3.19085 8.38451 3.125 8.21875 3.125H7.28125V2.8125C7.28125 2.64674 7.2154 2.48777 7.09819 2.37056C6.98098 2.25335 6.82201 2.1875 6.65625 2.1875C6.49049 2.1875 6.33152 2.25335 6.21431 2.37056C6.0971 2.48777 6.03125 2.64674 6.03125 2.8125V3.15323C5.56775 3.23134 5.15053 3.48079 4.86233 3.85211C4.57413 4.22342 4.436 4.68949 4.47533 5.15788C4.51466 5.62627 4.72858 6.06277 5.07466 6.38083C5.42074 6.69889 5.87371 6.87527 6.34375 6.875H6.96875C7.13451 6.875 7.29348 6.94085 7.41069 7.05806C7.5279 7.17527 7.59375 7.33424 7.59375 7.5C7.59375 7.66576 7.5279 7.82473 7.41069 7.94194C7.29348 8.05915 7.13451 8.125 6.96875 8.125H5.09375C4.92799 8.125 4.76902 8.19085 4.65181 8.30806C4.5346 8.42527 4.46875 8.58424 4.46875 8.75C4.46875 8.91576 4.5346 9.07473 4.65181 9.19194C4.76902 9.30915 4.92799 9.375 5.09375 9.375H6.03125V9.6875C6.03125 9.85326 6.0971 10.0122 6.21431 10.1294C6.33152 10.2467 6.49049 10.3125 6.65625 10.3125C6.82201 10.3125 6.98098 10.2467 7.09819 10.1294C7.2154 10.0122 7.28125 9.85326 7.28125 9.6875Z" fill="white"/>
<path d="M12.7297 12.5156C13.2641 12.748 13.847 12.847 14.4282 12.8041C15.0093 12.7611 15.5713 12.5775 16.0657 12.2691C16.5601 11.9607 16.9722 11.5367 17.2663 11.0336C17.5604 10.5305 17.7278 9.96348 17.754 9.38134C17.7803 8.79919 17.6646 8.21939 17.4169 7.6919C17.1693 7.1644 16.7971 6.70502 16.3324 6.35335C15.8678 6.00167 15.3246 5.76824 14.7497 5.67317C14.1747 5.5781 13.5853 5.62424 13.0322 5.80761C12.919 4.59241 12.461 3.43485 11.712 2.47121C10.9631 1.50757 9.95443 0.77797 8.80478 0.368307C7.65514 -0.0413567 6.41238 -0.114026 5.22282 0.158855C4.03327 0.431736 2.94644 1.03881 2.09029 1.90859C1.23415 2.77838 0.644337 3.87467 0.390294 5.06839C0.136251 6.26211 0.228557 7.50357 0.656342 8.64659C1.08413 9.78962 1.82958 10.7866 2.80494 11.5202C3.7803 12.2538 4.94496 12.6935 6.16179 12.7875C6.74764 12.9692 8.39242 13.933 9.01696 15.515C8.57232 15.0741 7.70304 14.375 6.65625 14.375C5.16089 14.375 4.02442 15.8037 3.97681 15.8646C3.89065 15.9746 3.84383 16.1103 3.84383 16.25C3.84383 16.3897 3.89065 16.5254 3.97681 16.6355C4.02442 16.6963 5.16089 18.125 6.65625 18.125C8.15162 18.125 9.28809 16.6963 9.3357 16.6355C9.34257 16.6267 9.34485 16.6159 9.3512 16.6068C9.47804 17.3173 9.46206 18.0458 9.30419 18.75H6.65625C6.49049 18.75 6.33152 18.8159 6.21431 18.9331C6.0971 19.0503 6.03125 19.2093 6.03125 19.375C6.03125 19.5408 6.0971 19.6997 6.21431 19.817C6.33152 19.9342 6.49049 20 6.65625 20H12.9063C13.072 20 13.231 19.9342 13.3482 19.817C13.4654 19.6997 13.5313 19.5408 13.5313 19.375C13.5313 19.2093 13.4654 19.0503 13.3482 18.9331C13.231 18.8159 13.072 18.75 12.9063 18.75H10.5814C10.7262 17.965 10.7265 17.1601 10.5821 16.375C10.8007 16.6363 11.8601 17.8125 13.2188 17.8125C14.7141 17.8125 15.8506 16.3838 15.8982 16.323C15.9844 16.2129 16.0312 16.0772 16.0312 15.9375C16.0312 15.7978 15.9844 15.6621 15.8982 15.5521C15.8506 15.4912 14.7141 14.0625 13.2188 14.0625C11.593 14.1213 10.586 15.4725 10.4628 15.6932C10.619 15.0118 11.1499 13.3866 12.7297 12.5156ZM6.65625 16.875C6.15729 16.8242 5.69091 16.6035 5.33515 16.25C5.69091 15.8965 6.15729 15.6758 6.65625 15.625C7.15522 15.6759 7.62159 15.8965 7.97736 16.25C7.6216 16.6035 7.15522 16.8242 6.65625 16.875ZM13.2188 15.3125C13.7177 15.3633 14.1841 15.584 14.5399 15.9375C14.1841 16.291 13.7177 16.5117 13.2188 16.5625C12.7198 16.5117 12.2534 16.291 11.8976 15.9375C12.2534 15.584 12.7198 15.3633 13.2188 15.3125ZM16.5 9.21876C16.5 9.68231 16.3625 10.1355 16.105 10.5209C15.8475 10.9063 15.4814 11.2067 15.0532 11.3841C14.6249 11.5615 14.1537 11.6079 13.699 11.5175C13.2444 11.427 12.8267 11.2038 12.499 10.876C12.1712 10.5483 11.948 10.1307 11.8575 9.67601C11.7671 9.22136 11.8135 8.75011 11.9909 8.32185C12.1683 7.89359 12.4687 7.52754 12.8541 7.27001C13.2396 7.01247 13.6927 6.87501 14.1563 6.87501C14.7776 6.87569 15.3734 7.12284 15.8128 7.56223C16.2522 8.00162 16.4993 8.59737 16.5 9.21876ZM1.5 6.40626C1.49981 5.72509 1.63463 5.05063 1.89665 4.42187C2.15868 3.79311 2.54273 3.22252 3.0266 2.74307C3.51047 2.26362 4.08456 1.88482 4.7157 1.62858C5.34684 1.37233 6.0225 1.24371 6.70365 1.25015C7.38479 1.25659 8.05791 1.39797 8.68408 1.66611C9.31026 1.93425 9.87709 2.32383 10.3518 2.81235C10.8265 3.30086 11.1997 3.87862 11.4498 4.51222C11.6999 5.14583 11.8219 5.82272 11.8088 6.50376C11.355 6.89485 11.0066 7.39358 10.7955 7.95426C10.5844 8.51493 10.5174 9.11961 10.6006 9.7129C10.1204 10.2933 9.51774 10.7601 8.83577 11.0799C8.1538 11.3997 7.40948 11.5645 6.65625 11.5625C5.28921 11.5609 3.97861 11.0172 3.01197 10.0505C2.04532 9.0839 1.50157 7.7733 1.5 6.40626ZM9.68024 14.1165C9.30622 13.539 8.84033 13.0264 8.301 12.5991C9.34065 12.3267 10.2935 11.7933 11.0693 11.0495C11.219 11.303 11.3992 11.5373 11.6057 11.7471C10.7643 12.3513 10.0996 13.1693 9.68024 14.1165Z" fill="white"/>
<path d="M14.1562 9.84375C14.5014 9.84375 14.7812 9.56393 14.7812 9.21875C14.7812 8.87357 14.5014 8.59375 14.1562 8.59375C13.8111 8.59375 13.5312 8.87357 13.5312 9.21875C13.5312 9.56393 13.8111 9.84375 14.1562 9.84375Z" fill="white"/>
</svg>
